<svg xmlns="http://www.w3.org/2000/svg" width="19" height="16" fill="none" viewBox="0 0 19 16"><path fill="#fff" d="M0 14C0 15.1046 0.895431 16 2 16H17C18.1046 16 19 15.1046 19 14V6C19 4.89543 18.1046 4 17 4H12.35H6.65H2C0.895432 4 0 4.89543 0 6V14Z"/><path fill="#fff" d="M9.5 0L5 6L14 6L9.5 0Z"/><path fill="#5BA1F8" fill-rule="evenodd" d="M4 15C2.89543 15 2 14.1046 2 13V8C2 6.89543 2.89543 6 4 6H7L9.5 2L12 6H15C16.1046 6 17 6.89543 17 8V13C17 14.1046 16.1046 15 15 15H4Z" clip-rule="evenodd"/><path fill="#fff" d="M9 8H10V10H12V11H10V13H9V11H7V10H9V8Z"/></svg>